# xmcd
#
# Track frame offsets:
#	150
#	15325
#	24997
#	40132
#	49295
#	64702
#	77710
#	93547
#	105800
#	117595
#	127770
#	137242
#
# Disc length: 2010
#
# Revision: 1
# Processed by: cddbd v1.5.1PL0 Copyright (c) Steve Scherf et al.
# Submitted via: CDex 1.60beta1
# Normalized: r0:DSETVAR1
#
DISCID=9007d80c
DTITLE=Various Artist - Legendary Lyrics/Morton's Of Chicago
DYEAR=0
DGENRE=Jazz
TTITLE0=Peggy Lee - Fever
TTITLE1=Count Basie - Chicago
TTITLE2=Mel Torme - Whatever Lola Wants
TTITLE3=Rosemary Clooney With Stan Freeman, Mundell Lowe, Jimmy Crawford and Frank Carroll - Come On-A My House
TTITLE4=Dinah Washington - Is You Is Or Is You Ain't My Baby
TTITLE5=Lena Horne - I Got Rhythm
TTITLE6=Ella Fitzgerald - 's Wonderful
TTITLE7=Nat King Cole - Walkin' My Baby Back Home
TTITLE8=Julie London - Sway
TTITLE9=Dean Martin - Just In Time
TTITLE10=Bobby Darin - Call Me Irreponsible
TTITLE11=Sarah Vaughan - The Best Is Yet To Come
EXTD=YEAR: 0
EXTT0=
EXTT1=
EXTT2=
EXTT3=
EXTT4=
EXTT5=
EXTT6=
EXTT7=
EXTT8=
EXTT9=
EXTT10=
EXTT11=
PLAYORDER=
